<svg version="1.1" id="Layer_1" xmlns="http://www.w3.org/2000/svg" xmlns:xlink="http://www.w3.org/1999/xlink" height="40"  viewBox="0 0 520.3 86" enable-background="new 0 0 520.3 86" xml:space="preserve">
<path fill="#000" d="M32.6,71.3c2.9-1,5.1-2.3,6.5-3.9c1.5-1.6,2.4-3.4,3-5.4c0.5-2,0.8-4.2,0.8-6.7v-2.7c0-5.1-0.4-8.8-1.1-11.2  c-0.7-2.5-2-4.2-3.8-5.1c-1.7-0.9-4.5-1.4-8.3-1.7v-0.6c3.3-0.4,5.8-1.3,7.9-2.5c2.1-1.3,3.4-2.9,4.2-4.7c0.8-1.9,1.2-4.3,1.2-6.9  v-4.9c0-3.6-0.6-6.5-1.8-8.6c-1.1-2.2-3.4-3.8-6.5-4.8C31.5,0.5,27,0,21.1,0H0v72.7h21.4C26,72.7,29.7,72.2,32.6,71.3z M17,10.1h3.4  c1.3,0,2.6,0.4,3.8,1.3c1.1,0.9,1.7,2,1.7,3.4v9.6c0,1.5-0.6,2.7-1.7,3.7c-1.1,1-2.6,1.4-4.3,1.4H17V10.1z M17,62.2V40h4.3  c1.3,0,2.4,0.5,3.3,1.5c0.9,0.9,1.4,2,1.4,3.4l-0.1,11.8c0,1.4-0.5,2.8-1.6,3.8c-1,1.1-2.2,1.7-3.7,1.7H17z M70.1,66.3l0.4,6.4h16  c0-0.1-0.1-0.7-0.2-1.8c-0.2-1.2-0.3-2-0.3-2.6V27.9c0-2.1-0.4-4.1-1.1-5.8c-0.7-1.8-1.7-3.4-3.3-4.7c-1.5-1.3-3.5-2.4-5.8-3.1  c-2.3-0.7-5.1-1.1-8.4-1.1c-7,0-12.1,1.3-15.4,4c-3.4,2.8-5,6.2-5,10.7v7.3h16.1v-6.4c0-1.2,0.3-2.3,1-3.3c0.6-1,1.5-1.5,2.5-1.5  c2.1,0,3.3,1.5,3.3,4.5c0,1.8-0.1,2.7-0.4,3.3c-0.2,0.5-0.7,1-1.3,1.7c-1.1,1-2.4,1.9-3.7,2.8c-1.3,0.8-3.8,2.1-7,4  c-3.4,1.8-5.6,3.1-6.6,4c-1.4,1.5-2.5,3.3-3,5.2c-0.5,1.8-0.8,4.4-0.8,7.7c0.1,4.2,0.3,7.5,0.7,9.6c0.3,2,1.6,3.8,3.8,5.3  c2,1.5,4.4,2.2,6.8,2.2c2.7,0,5.2-0.7,7.5-2.1c2.1-1.4,3.3-3.4,3.8-5.6H70.1z M66.5,61.2c-1.2,0-2-0.4-2.6-1.2  c-0.4-0.8-0.7-1.6-0.7-2.5v-6.1c0-1.4,0.6-2.7,1.7-3.7c0.3-0.4,2-1.8,5-4.3v14.8c0,0.5-0.3,1.2-0.8,1.9  C68.6,60.9,67.7,61.2,66.5,61.2z M106.3,0H90.2v72.7h16.1V0z M113.2,72.7h16.1V25.2h4.8V14.6h-4.8v-2.1c0-1.5,1.6-2.4,4.9-2.4V0  h-9.9c-2.4,0-4.5,0.5-6.2,1.5c-1.6,0.9-2.9,2.5-3.8,4.7c-0.8,2.1-1.2,4.9-1.2,8.4h-3.3v10.6h3.4V72.7z M173.8,65.4  c1.2-2.7,1.8-6,1.8-9.8V31.7c0-6.2-1.5-10.9-4.7-14c-3.1-3.1-8.1-4.6-14.9-4.6c-4.8,0-8.5,0.7-11.4,2.3c-3,1.4-5,3.6-6.2,6.3  c-1.3,2.8-1.9,6.1-1.9,10v23.9c0,4,0.6,7.2,1.9,10c1.3,2.8,3.4,4.8,6.3,6.3c3,1.4,6.7,2.1,11.4,2.1c4.7,0,8.6-0.7,11.4-2.2  C170.4,70.3,172.5,68.2,173.8,65.4z M159.5,59.2c0,2.8-1.2,4.2-3.6,4.2c-1,0-1.9-0.4-2.4-1.2c-0.6-0.8-0.9-1.7-0.9-3V27.8  c0-1.4,0.3-2.4,0.9-3.3c0.6-0.7,1.4-1.1,2.5-1.1c1.1,0,2.1,0.4,2.7,1.2c0.5,0.7,0.8,1.8,0.8,3.2V59.2z M218.6,72.7V14.6h-16.1V58  c0,0.8-0.3,1.4-1,2c-0.6,0.6-1.5,0.9-2.5,0.9c-1.1,0-1.9-0.4-2.4-1.2c-0.5-0.7-0.9-1.5-0.9-2.5V14.6h-16.1v47.8  c0,2.3,0.4,4.5,1.3,6.2c0.9,1.8,2.1,3.2,3.6,4.1c1.5,0.9,3.4,1.4,5.4,1.4c3,0,5.6-0.8,7.8-2.3c2.4-1.6,4-3.6,5.1-5.7v6.7H218.6z   M245.5,29.9v15.9h16.1V24.6c0-3.2-1-6-3-8.1c-1.9-2.1-4.5-3.1-7.5-3.1c-5.7,0-9.9,2.8-12.7,8.4v-7h-15.7v58h16.1V29.9  c0-1,0.4-1.7,1.2-2.4c0.7-0.6,1.5-0.9,2.3-0.9c0.9,0,1.6,0.3,2.2,0.9C245.2,28.2,245.5,29,245.5,29.9z M324.2,1.5  c-3.2-1-7.7-1.5-13.6-1.5h-21.1v72.7H311c4.6,0,8.2-0.5,11.2-1.4c2.9-1,5.1-2.3,6.5-3.9c1.5-1.6,2.4-3.4,2.9-5.4  c0.5-2,0.8-4.2,0.8-6.7v-2.7c0-5.1-0.4-8.8-1.1-11.2c-0.7-2.5-2-4.2-3.8-5.1c-1.7-0.9-4.5-1.4-8.2-1.7v-0.6c3.2-0.4,5.8-1.3,7.8-2.5  c2-1.3,3.4-2.9,4.2-4.7c0.8-1.9,1.2-4.3,1.2-6.9v-4.9c0-3.6-0.6-6.5-1.8-8.6C329.6,4.2,327.4,2.6,324.2,1.5z M306.6,10.1h3.4  c1.3,0,2.6,0.4,3.8,1.3c1.1,0.9,1.7,2,1.7,3.4v9.6c0,1.5-0.6,2.7-1.7,3.7c-1.1,1-2.6,1.4-4.3,1.4h-2.8V10.1z M315.5,56.8  c0,1.4-0.5,2.8-1.7,3.8c-1,1.1-2.2,1.7-3.7,1.7h-3.6V40h4.3c1.3,0,2.3,0.5,3.3,1.5c0.9,0.9,1.4,2,1.4,3.4L315.5,56.8z M370.7,17.4  c-3.2-2.9-8.2-4.3-15.1-4.3c-4.6,0-8.2,0.7-11.1,2.3c-2.8,1.4-4.9,3.5-6.1,6.2c-1.4,2.6-1.9,5.9-1.9,9.7v24.6  c0,12.1,6.5,18.2,19.5,18.2c3.4,0,6.3-0.4,8.9-1.2c2.4-0.9,4.5-2,6.1-3.5c1.5-1.5,2.8-3.2,3.5-5.2c0.7-1.9,1.1-3.9,1.1-5.9v-8.2  h-16.1v9.6c0,1-0.3,1.9-0.9,2.7c-0.6,0.7-1.5,1-2.5,1c-0.9,0-1.7-0.4-2.4-1.1c-0.7-0.8-1-1.6-1-2.5V45.2h22.9V28.5  C375.5,24,373.8,20.3,370.7,17.4z M359.4,35.4h-6.8v-6.9c0-3.4,1.1-5,3.4-5c1,0,1.9,0.4,2.5,1.1c0.6,0.8,0.9,1.6,0.9,2.5V35.4z   M418.4,68.4V27.9c0-2.1-0.4-4.1-1.1-5.8c-0.7-1.8-1.8-3.4-3.3-4.7c-1.5-1.3-3.5-2.4-5.8-3.1c-2.4-0.7-5.1-1.1-8.4-1.1  c-6.9,0-12.1,1.3-15.4,4c-3.4,2.8-5,6.2-5,10.7v7.3h16.1v-6.4c0-1.2,0.3-2.3,1-3.3c0.6-1,1.6-1.5,2.5-1.5c2.2,0,3.3,1.5,3.3,4.5  c0,1.8-0.1,2.7-0.4,3.3c-0.2,0.5-0.7,1-1.3,1.7c-1.1,1-2.3,1.9-3.8,2.8c-1.3,0.8-3.8,2.1-7,4c-3.4,1.8-5.6,3.1-6.6,4  c-1.4,1.5-2.4,3.3-3,5.2c-0.5,1.8-0.8,4.4-0.8,7.7c0.1,4.2,0.3,7.5,0.7,9.6c0.3,2,1.7,3.8,3.8,5.3c2,1.5,4.4,2.2,6.8,2.2  c2.8,0,5.2-0.7,7.5-2.1c2.1-1.4,3.4-3.4,3.8-5.6h0.5l0.4,6.4h16c0-0.1-0.1-0.7-0.2-1.8C418.5,69.8,418.4,68.9,418.4,68.4z   M402.3,58.2c0,0.5-0.3,1.2-0.8,1.9c-0.5,0.8-1.4,1.1-2.6,1.1c-1.3,0-2.1-0.4-2.6-1.2c-0.4-0.8-0.7-1.6-0.7-2.5v-6.1  c0-1.4,0.6-2.7,1.7-3.7c0.3-0.4,2-1.8,5-4.3V58.2z M471.6,3.9h-16.1v10.7h-12.8V3.9h-16.1v10.7h-5.4v10.6h5.4v36.5c0,3.4,1,6,3,8  c2,2,4.7,3,8,3h12.2V62.7h-3.1c-2.7,0-4-0.9-4-2.7V25.2h12.8v36.5c0,3.4,1,6.1,3,8c2.1,2,4.7,3,7.9,3h12.2V62.7h-3.1  c-2.8,0-4.1-0.9-4.1-2.7V25.2h7.1V14.6h-7.1V3.9z M506.7,14.6c-0.2,1.5-0.5,3.1-1,4.9c-0.3,1.7-0.6,3.6-1,5.4  c-0.3,1.9-0.5,3.7-0.8,5.5c-0.2,1.8-0.3,3.6-0.6,5.2c-1,6.9-1.8,13.8-2,20.6h-0.4c-0.2-5.8-0.9-12.4-2.1-20.1  c-0.2-1.6-0.3-3-0.6-4.6c-0.2-1.4-0.4-3.2-0.7-5.1c-0.3-1.8-0.6-3.9-1-6.1c-0.1-0.8-0.2-1.6-0.3-2c-0.1-0.6-0.2-1.1-0.3-1.7  c-0.1-0.5-0.1-0.9-0.2-1.2c0-0.3-0.1-0.5-0.1-0.7h-16.1c4.5,20.8,7.3,34.4,8.9,41c2.5,10.9,3.8,16.8,3.8,17.9c0,0.7-0.2,1.3-0.7,1.6  c-0.5,0.4-0.9,0.6-1.3,0.6H481V86h15.7c1.4,0,2.8-0.3,4.1-0.9c1.3-0.6,2.4-1.2,3-2.1c1.4-1.4,2.5-3.7,3.3-6.7  c0.8-3,1.9-7.8,3.3-14.2c4.5-22.2,7.9-38,10-47.6H506.7z"/>
</svg>