<svg id="visual" viewBox="0 0 600 900" width="600" height="900" opacity="0.5" xmlns="http://www.w3.org/2000/svg" xmlns:xlink="http://www.w3.org/1999/xlink" version="1.1"><rect x="0" y="0" width="600" height="900" fill="#f0f2f4"></rect><defs><linearGradient id="grad1_0" x1="0%" y1="0%" x2="100%" y2="100%"><stop offset="30%" stop-color="#0ea5e9" stop-opacity="1"></stop><stop offset="70%" stop-color="#0ea5e9" stop-opacity="1"></stop></linearGradient></defs><defs><linearGradient id="grad1_1" x1="0%" y1="0%" x2="100%" y2="100%"><stop offset="30%" stop-color="#0ea5e9" stop-opacity="1"></stop><stop offset="70%" stop-color="#62b4ec" stop-opacity="1"></stop></linearGradient></defs><defs><linearGradient id="grad1_2" x1="0%" y1="0%" x2="100%" y2="100%"><stop offset="30%" stop-color="#8dc3ee" stop-opacity="1"></stop><stop offset="70%" stop-color="#62b4ec" stop-opacity="1"></stop></linearGradient></defs><defs><linearGradient id="grad1_3" x1="0%" y1="0%" x2="100%" y2="100%"><stop offset="30%" stop-color="#8dc3ee" stop-opacity="1"></stop><stop offset="70%" stop-color="#b1d2f0" stop-opacity="1"></stop></linearGradient></defs><defs><linearGradient id="grad1_4" x1="0%" y1="0%" x2="100%" y2="100%"><stop offset="30%" stop-color="#d1e2f2" stop-opacity="1"></stop><stop offset="70%" stop-color="#b1d2f0" stop-opacity="1"></stop></linearGradient></defs><defs><linearGradient id="grad1_5" x1="0%" y1="0%" x2="100%" y2="100%"><stop offset="30%" stop-color="#d1e2f2" stop-opacity="1"></stop><stop offset="70%" stop-color="#f0f2f4" stop-opacity="1"></stop></linearGradient></defs><defs><linearGradient id="grad2_0" x1="0%" y1="0%" x2="100%" y2="100%"><stop offset="30%" stop-color="#0ea5e9" stop-opacity="1"></stop><stop offset="70%" stop-color="#0ea5e9" stop-opacity="1"></stop></linearGradient></defs><defs><linearGradient id="grad2_1" x1="0%" y1="0%" x2="100%" y2="100%"><stop offset="30%" stop-color="#62b4ec" stop-opacity="1"></stop><stop offset="70%" stop-color="#0ea5e9" stop-opacity="1"></stop></linearGradient></defs><defs><linearGradient id="grad2_2" x1="0%" y1="0%" x2="100%" y2="100%"><stop offset="30%" stop-color="#62b4ec" stop-opacity="1"></stop><stop offset="70%" stop-color="#8dc3ee" stop-opacity="1"></stop></linearGradient></defs><defs><linearGradient id="grad2_3" x1="0%" y1="0%" x2="100%" y2="100%"><stop offset="30%" stop-color="#b1d2f0" stop-opacity="1"></stop><stop offset="70%" stop-color="#8dc3ee" stop-opacity="1"></stop></linearGradient></defs><defs><linearGradient id="grad2_4" x1="0%" y1="0%" x2="100%" y2="100%"><stop offset="30%" stop-color="#b1d2f0" stop-opacity="1"></stop><stop offset="70%" stop-color="#d1e2f2" stop-opacity="1"></stop></linearGradient></defs><defs><linearGradient id="grad2_5" x1="0%" y1="0%" x2="100%" y2="100%"><stop offset="30%" stop-color="#f0f2f4" stop-opacity="1"></stop><stop offset="70%" stop-color="#d1e2f2" stop-opacity="1"></stop></linearGradient></defs><g transform="translate(600, 0)"><path d="M0 540.8C-81.2 543.4 -162.3 545.9 -207 499.7C-251.6 453.5 -259.7 358.5 -306.2 306.2C-352.7 253.8 -437.7 244.1 -483.2 200.1C-528.7 156.2 -534.8 78.1 -540.8 0L0 0Z" fill="#e1eaf3"></path><path d="M0 450.7C-67.6 452.8 -135.3 454.9 -172.5 416.4C-209.7 377.9 -216.4 298.8 -255.1 255.1C-293.9 211.5 -364.7 203.4 -402.7 166.8C-440.6 130.2 -445.6 65.1 -450.7 0L0 0Z" fill="#c1daf1"></path><path d="M0 360.6C-54.1 362.2 -108.2 363.9 -138 333.1C-167.7 302.3 -173.1 239 -204.1 204.1C-235.1 169.2 -291.8 162.7 -322.1 133.4C-352.5 104.1 -356.5 52.1 -360.6 0L0 0Z" fill="#9fcbef"></path><path d="M0 270.4C-40.6 271.7 -81.2 272.9 -103.5 249.8C-125.8 226.7 -129.8 179.3 -153.1 153.1C-176.3 126.9 -218.8 122 -241.6 100.1C-264.4 78.1 -267.4 39.1 -270.4 0L0 0Z" fill="#79bbed"></path><path d="M0 180.3C-27.1 181.1 -54.1 182 -69 166.6C-83.9 151.2 -86.6 119.5 -102.1 102.1C-117.6 84.6 -145.9 81.4 -161.1 66.7C-176.2 52.1 -178.3 26 -180.3 0L0 0Z" fill="#46acea"></path><path d="M0 90.1C-13.5 90.6 -27.1 91 -34.5 83.3C-41.9 75.6 -43.3 59.8 -51 51C-58.8 42.3 -72.9 40.7 -80.5 33.4C-88.1 26 -89.1 13 -90.1 0L0 0Z" fill="#0ea5e9"></path></g><g transform="translate(0, 900)"><path d="M0 -540.8C65.7 -526.9 131.3 -513 203.6 -491.5C275.8 -470 354.7 -440.9 382.4 -382.4C410.2 -324 386.8 -236.2 404.7 -167.6C422.5 -99 481.7 -49.5 540.8 0L0 0Z" fill="#e1eaf3"></path><path d="M0 -450.7C54.7 -439.1 109.4 -427.5 169.7 -409.6C229.9 -391.7 295.6 -367.4 318.7 -318.7C341.8 -270 322.3 -196.9 337.2 -139.7C352.1 -82.5 401.4 -41.2 450.7 0L0 0Z" fill="#c1daf1"></path><path d="M0 -360.6C43.8 -351.3 87.6 -342 135.7 -327.7C183.9 -313.3 236.5 -293.9 255 -255C273.4 -216 257.9 -157.5 269.8 -111.7C281.7 -66 321.1 -33 360.6 0L0 0Z" fill="#9fcbef"></path><path d="M0 -270.4C32.8 -263.5 65.7 -256.5 101.8 -245.8C137.9 -235 177.3 -220.4 191.2 -191.2C205.1 -162 193.4 -118.1 202.3 -83.8C211.3 -49.5 240.8 -24.7 270.4 0L0 0Z" fill="#79bbed"></path><path d="M0 -180.3C21.9 -175.6 43.8 -171 67.9 -163.8C91.9 -156.7 118.2 -147 127.5 -127.5C136.7 -108 128.9 -78.7 134.9 -55.9C140.8 -33 160.6 -16.5 180.3 0L0 0Z" fill="#46acea"></path><path d="M0 -90.1C10.9 -87.8 21.9 -85.5 33.9 -81.9C46 -78.3 59.1 -73.5 63.7 -63.7C68.4 -54 64.5 -39.4 67.4 -27.9C70.4 -16.5 80.3 -8.2 90.1 0L0 0Z" fill="#0ea5e9"></path></g></svg>