<svg id="visual" viewBox="0 0 400 300" width="400" height="300" xmlns="http://www.w3.org/2000/svg" xmlns:xlink="http://www.w3.org/1999/xlink" version="1.1"><path d="M0 43L33.3 41.5C66.7 40 133.3 37 200 44C266.7 51 333.3 68 366.7 76.5L400 85L400 0L366.7 0C333.3 0 266.7 0 200 0C133.3 0 66.7 0 33.3 0L0 0Z" fill="#f1d8bc"></path><path d="M0 103L33.3 104.5C66.7 106 133.3 109 200 118C266.7 127 333.3 142 366.7 149.5L400 157L400 83L366.7 74.5C333.3 66 266.7 49 200 42C133.3 35 66.7 38 33.3 39.5L0 41Z" fill="#f7e9d9"></path><path d="M0 118L33.3 130C66.7 142 133.3 166 200 181C266.7 196 333.3 202 366.7 205L400 208L400 155L366.7 147.5C333.3 140 266.7 125 200 116C133.3 107 66.7 104 33.3 102.5L0 101Z" fill="#f9efe4"></path><path d="M0 247L33.3 254.5C66.7 262 133.3 277 200 282C266.7 287 333.3 282 366.7 279.5L400 277L400 206L366.7 203C333.3 200 266.7 194 200 179C133.3 164 66.7 140 33.3 128L0 116Z" fill="#f7e9d9"></path><path d="M0 301L33.3 301C66.7 301 133.3 301 200 301C266.7 301 333.3 301 366.7 301L400 301L400 275L366.7 277.5C333.3 280 266.7 285 200 280C133.3 275 66.7 260 33.3 252.5L0 245Z" fill="#f1d8bc"></path></svg>