<svg xmlns="http://www.w3.org/2000/svg" version="1.1" opacity="0.2" xmlns:xlink="http://www.w3.org/1999/xlink" xmlns:svgjs="http://svgjs.dev/svgjs" width="400" height="4000" preserveAspectRatio="none" viewBox="0 0 400 4000"><g mask="url(&quot;#SvgjsMask1115&quot;)" fill="none"><path d="M48.344057236689395 2061.595130875014L101.27298959532897 2149.6836670222165 189.36152574253117 2096.7547346635765 136.43259338389157 2008.6661985163746z" fill="rgba(23, 37, 84, 0.61)" class="triangle-float2"></path><path d="M30.122,2406.081C60.491,2406.792,90.158,2391.934,104.717,2365.273C118.767,2339.545,112.161,2308.684,97.016,2283.585C82.443,2259.435,58.3,2240.397,30.122,2241.654C3.564,2242.839,-13.98,2266.048,-27.178,2289.124C-40.249,2311.978,-50.241,2338.273,-38.658,2361.916C-25.81,2388.14,0.928,2405.397,30.122,2406.081" fill="rgba(23, 37, 84, 0.61)" class="triangle-float1"></path><path d="M77.668,1254.441C105.868,1254.353,125.432,1229.147,138.522,1204.169C150.506,1181.302,153.526,1155.006,141.843,1131.984C128.913,1106.504,106.205,1085.693,77.668,1084.254C46.773,1082.696,15.296,1097.351,1.212,1124.893C-11.971,1150.673,1.437,1179.615,16.154,1204.551C30.536,1228.92,49.372,1254.529,77.668,1254.441" fill="rgba(23, 37, 84, 0.61)" class="triangle-float2"></path><path d="M64.12741499811068 1260.9148194497852L147.17170035961772 1244.7726455890945 131.029526498927 1161.7283602275875 47.985241137419976 1177.8705340882782z" fill="rgba(23, 37, 84, 0.61)" class="triangle-float2"></path><path d="M-2.669,1603.913C18.258,1604.952,39.35,1593.953,48.385,1575.048C56.582,1557.896,45.664,1539.614,35.839,1523.34C26.492,1507.859,15.391,1491.424,-2.669,1490.487C-22.003,1489.484,-39.614,1501.897,-48.784,1518.948C-57.503,1535.161,-54.417,1554.199,-45.636,1570.379C-36.347,1587.493,-22.117,1602.947,-2.669,1603.913" fill="rgba(23, 37, 84, 0.61)" class="triangle-float3"></path><path d="M305.769,3240.302C330.978,3240.623,352.376,3224.394,365.646,3202.958C379.781,3180.126,387.43,3152.217,375.053,3128.387C361.82,3102.909,334.393,3085.456,305.769,3087.673C279.8,3089.685,264.589,3114.586,252.876,3137.851C242.632,3158.199,238.027,3181.223,248.478,3201.465C259.822,3223.438,281.043,3239.987,305.769,3240.302" fill="rgba(23, 37, 84, 0.61)" class="triangle-float3"></path><path d="M299.7513794153009 3568.225173028073L257.3063743906688 3519.397780203399 208.47898156599499 3561.8427852280315 250.92398659062712 3610.6701780527055z" fill="rgba(23, 37, 84, 0.61)" class="triangle-float3"></path><path d="M269.064,3725.547C292.847,3727.484,314.183,3710.767,325.439,3689.727C336.089,3669.819,334.012,3645.733,321.985,3626.625C310.724,3608.735,290.197,3600.66,269.064,3600.165C246.861,3599.645,221.923,3604.342,211.668,3624.042C201.845,3642.912,216.158,3663.16,226.629,3681.679C237.362,3700.66,247.331,3723.777,269.064,3725.547" fill="rgba(23, 37, 84, 0.61)" class="triangle-float3"></path><path d="M329.424,1160.462C369.812,1161.114,407.871,1140.442,428.269,1105.578C448.868,1070.37,448.155,1027.055,428.337,991.402C407.921,954.674,371.445,927.762,329.424,927.758C287.397,927.754,250.305,954.327,230.48,991.384C211.735,1026.422,215.884,1068.178,235.954,1102.474C255.802,1136.391,290.131,1159.828,329.424,1160.462" fill="rgba(23, 37, 84, 0.61)" class="triangle-float3"></path><path d="M342.27340964364515 3383.850712942686L408.3139276042794 3420.4575698108947 444.9207844724881 3354.4170518502606 378.88026651185385 3317.810194982052z" fill="rgba(23, 37, 84, 0.61)" class="triangle-float2"></path><path d="M26.85139189412965 803.9242128878318L-0.8762332980905043 900.6219334765874 95.82148729066512 928.3495586688076 123.54911248288528 831.6518380800519z" fill="rgba(23, 37, 84, 0.61)" class="triangle-float1"></path><path d="M264.567,972.38C295.867,971.154,319.34,947.918,335.807,921.272C353.446,892.729,368.479,858.843,353.189,828.975C336.868,797.094,300.297,779.631,264.567,782.112C232.313,784.351,210.815,811.777,194.969,839.959C179.538,867.402,168.306,899.392,182.953,927.261C198.453,956.753,231.276,973.684,264.567,972.38" fill="rgba(23, 37, 84, 0.61)" class="triangle-float1"></path></g><defs><mask id="SvgjsMask1115"><rect width="400" height="4000" fill="#ffffff"></rect></mask></defs></svg>